<?xml version="1.0" encoding="UTF-8"?><svg id="a" xmlns="http://www.w3.org/2000/svg" viewBox="0 0 1080 252.567"><defs><style>.b{fill:#0d2b75;}.c{fill:#fff;}</style></defs><rect class="b" y="-2.914" width="1080" height="258.395"/><path class="c" d="M456.73,83.395c9.046,0,16.744,1.506,23.092,4.509,6.347,3.008,11.563,6.821,15.65,11.442,4.083,4.621,7.038,9.648,8.864,15.073,1.823,5.427,2.736,10.561,2.736,15.402v65.57h-26.265v-64.909c0-3.961-.656-7.334-1.97-10.122-1.313-2.783-3.064-5.132-5.253-7.04-2.189-1.905-4.743-3.301-7.661-4.181-2.921-.88-5.985-1.32-9.193-1.32s-6.276.44-9.193,1.32c-2.921.88-5.472,2.276-7.661,4.181-2.189,1.908-3.939,4.256-5.253,7.04-1.313,2.788-1.97,6.161-1.97,10.122v64.909h-26.266v-65.57c0-4.841.91-9.974,2.737-15.402,1.823-5.426,4.778-10.452,8.864-15.073,4.083-4.621,9.303-8.434,15.65-11.442,6.348-3.003,14.043-4.509,23.092-4.509Z"/><path class="c" d="M517.139,140.383c0-8.505,1.347-16.245,4.048-23.214,2.7-6.964,6.529-12.906,11.492-17.822,4.959-4.913,10.945-8.726,17.949-11.442,7.004-2.713,14.737-4.069,23.202-4.069s16.159,1.356,23.092,4.069c6.928,2.716,12.876,6.529,17.838,11.442,4.959,4.917,8.789,10.858,11.49,17.822,2.7,6.969,4.05,14.709,4.05,23.214s-1.35,16.282-4.05,23.323c-2.701,7.041-6.531,13.058-11.49,18.042-4.963,4.989-10.91,8.84-17.838,11.552-6.933,2.713-14.631,4.071-23.092,4.071s-16.198-1.358-23.202-4.071c-7.004-2.713-12.989-6.564-17.949-11.552-4.963-4.984-8.792-11.001-11.492-18.042-2.701-7.041-4.048-14.815-4.048-23.323ZM543.403,140.603c0,10.268,2.737,18.262,8.209,23.983,5.472,5.721,12.804,8.582,21.996,8.582s16.561-2.861,22.108-8.582c5.544-5.721,8.317-13.715,8.317-23.983s-2.774-18.263-8.317-23.984c-5.547-5.72-12.914-8.58-22.108-8.58s-16.525,2.861-21.996,8.58c-5.472,5.721-8.209,13.718-8.209,23.984Z"/><path class="c" d="M626.796,85.374h28.235l26.704,74.591,26.703-74.591h28.235l-41.367,110.017h-27.141l-41.369-110.017Z"/><path class="c" d="M792.488,197.372c-9.047,0-16.742-1.506-23.091-4.511-6.347-3.005-11.566-6.821-15.65-11.442-4.087-4.619-7.041-9.643-8.864-15.071-1.826-5.426-2.736-10.562-2.736-15.403v-65.57h26.264v64.909c0,3.964.657,7.34,1.971,10.125,1.314,2.788,3.064,5.137,5.253,7.041,2.189,1.905,4.741,3.297,7.661,4.178,2.918.88,5.983,1.32,9.192,1.32s6.273-.44,9.193-1.32c2.92-.88,5.475-2.273,7.662-4.178s3.941-4.253,5.255-7.041c1.31-2.785,1.967-6.161,1.967-10.125v-64.909h26.268v65.57c0,4.841-.913,9.978-2.736,15.403-1.826,5.429-4.782,10.452-8.864,15.071-4.089,4.621-9.304,8.437-15.653,11.442-6.345,3.005-14.044,4.511-23.092,4.511Z"/><path class="c" d="M903.02,83.395c9.048,0,16.451,1.506,22.218,4.509,5.761,3.008,10.359,6.821,13.787,11.442,3.429,4.621,5.872,9.648,7.334,15.073,1.458,5.427,2.332,10.561,2.627,15.402l4.378,65.57h-26.268v-64.909c0-3.961-.657-7.334-1.967-10.122-1.314-2.783-3.068-5.132-5.255-7.04-2.187-1.905-4.742-3.301-7.662-4.181-2.92-.88-5.984-1.32-9.193-1.32s-6.273.44-9.193,1.32c-2.92.88-5.472,2.276-7.659,4.181-2.191,1.908-3.941,4.256-5.255,7.04-1.314,2.788-1.971,6.161-1.971,10.122v64.909h-26.264v-65.57c0-4.841.91-9.974,2.736-15.402,1.823-5.426,4.779-10.452,8.864-15.073,4.086-4.621,9.304-8.434,15.65-11.442,6.348-3.003,14.044-4.509,23.092-4.509ZM977.441,83.395c9.045,0,16.743,1.506,23.092,4.509,6.345,3.008,11.561,6.821,15.65,11.442,4.082,4.621,7.038,9.648,8.864,15.073,1.823,5.427,2.736,10.561,2.736,15.402v65.57h-26.264v-64.909c0-3.961-.657-7.334-1.971-10.122-1.314-2.783-3.064-5.132-5.255-7.04-2.187-1.905-4.742-3.301-7.659-4.181-2.923-.88-5.987-1.32-9.193-1.32s-6.276.44-9.193,1.32c-2.923.88-5.475,2.276-7.662,4.181-2.187,1.908-3.941,4.256-5.255,7.04-1.31,2.788-1.967,6.161-1.967,10.122v64.909h-26.268l4.378-65.57c.292-4.841,1.166-9.974,2.627-15.402,1.458-5.426,3.902-10.452,7.334-15.073,3.425-4.621,8.023-8.434,13.787-11.442,5.764-3.003,13.167-4.509,22.218-4.509Z"/><path class="c" d="M1043.92,85.949h-3.451v-1.899h8.982v1.899h-3.468v9.658h-2.063v-9.658Z"/><path class="c" d="M1050.194,84.051h2.394l3.368,8.8,3.351-8.8h2.394v11.557h-2.063v-7.082l-2.675,7.016.015.066h-2.063l.017-.066-2.675-7.016v7.082h-2.063v-11.557Z"/><path class="c" d="M414.252,63.012l-116.615,116.598c-10.375,10.375-24.5,16.126-38.978,16.126-2.842,0-5.684-.219-8.525-.673-17.337-2.758-32.454-13.721-40.424-29.36l-20.498-40.189-70.221,70.221H18.299L154.588,59.448c12.41-12.41,30.184-18.194,47.52-15.453,17.337,2.758,32.454,13.721,40.424,29.36l20.498,40.189L363.907,12.667l50.345,50.345Z"/><path class="c" d="M404.895,221.047v2.319h5.322v16.231h2.471v-16.231h5.321v-2.319h-13.114Z"/><path class="c" d="M433.744,221.047v8.058h-10.339v-8.058h-2.471v18.549h2.471v-8.172h10.339v8.172h2.471v-18.549h-2.471Z"/><path class="c" d="M443.019,237.277v-5.854h6.918v-2.319h-6.918v-5.74h7.792v-2.319h-10.263v18.549h10.415v-2.319h-7.944Z"/><path class="c" d="M485.667,221.047l-5.245,15.318-5.36-15.318h-2.242l-5.36,15.318-5.283-15.318h-2.699l6.652,18.549h2.547l5.245-14.976,5.207,14.976h2.547l6.652-18.549h-2.661Z"/><path class="c" d="M497.64,221.047h-2.927l-7.564,18.549h2.623l1.825-4.485h9.084l1.787,4.485h2.699l-7.526-18.549ZM492.509,232.83l3.611-9.123,3.649,9.123h-7.26Z"/><path class="c" d="M517.899,221.047l-6.006,9.275-6.044-9.275h-2.775l7.564,11.669v6.88h2.433v-6.88l7.602-11.669h-2.775Z"/><path class="c" d="M528.352,221.047v2.319h5.321v16.231h2.471v-16.231h5.322v-2.319h-13.114Z"/><path class="c" d="M558.533,223.48c-1.825-1.824-4.143-2.775-6.88-2.775-2.813,0-5.093.95-6.956,2.775-1.824,1.824-2.775,4.105-2.775,6.842,0,2.699.95,4.979,2.775,6.842,1.862,1.825,4.181,2.737,6.956,2.737,2.737,0,5.055-.912,6.88-2.737,1.862-1.862,2.813-4.143,2.813-6.842,0-2.737-.95-5.017-2.813-6.842ZM556.746,235.453c-1.406,1.406-3.079,2.091-5.093,2.091-2.053,0-3.763-.684-5.132-2.091-1.368-1.331-2.052-3.079-2.052-5.132,0-2.091.684-3.801,2.052-5.169,1.369-1.368,3.079-2.052,5.132-2.052,2.014,0,3.687.684,5.093,2.052,1.369,1.368,2.053,3.117,2.053,5.169s-.684,3.763-2.053,5.132Z"/><path class="c" d="M580.236,221.047h-2.927l-7.564,18.549h2.623l1.824-4.485h9.085l1.786,4.485h2.699l-7.526-18.549ZM575.105,232.83l3.611-9.123,3.611,9.123h-7.222Z"/><path class="c" d="M604.373,223.708c-1.825-1.786-4.029-2.661-6.728-2.661h-7.146v18.549h7.146c2.699,0,4.903-.874,6.728-2.661,1.786-1.748,2.699-3.953,2.699-6.614s-.912-4.865-2.699-6.614ZM602.548,235.301c-1.33,1.292-2.965,1.977-4.903,1.977h-4.675v-13.912h4.675c1.939,0,3.573.646,4.903,1.977,1.331,1.331,1.977,2.965,1.977,4.979,0,1.977-.646,3.649-1.977,4.979Z"/><path class="c" d="M622.96,221.047l-6.234,15.318-6.234-15.318h-2.737l7.64,18.549h2.585l7.64-18.549h-2.661Z"/><path class="c" d="M634.819,221.047h-2.927l-7.564,18.549h2.661l1.786-4.485h9.085l1.786,4.485h2.737l-7.564-18.549ZM629.688,232.83l3.611-9.123,3.649,9.123h-7.26Z"/><path class="c" d="M658.12,221.047v14.482l-10.453-14.482h-2.547v18.549h2.471v-14.444l10.453,14.444h2.547v-18.549h-2.471Z"/><path class="c" d="M677.923,236.251c-1.216.836-2.623,1.292-4.219,1.292-2.052,0-3.763-.684-5.131-2.091-1.369-1.331-2.053-3.079-2.053-5.132,0-2.091.684-3.801,2.053-5.169,1.368-1.368,3.079-2.052,5.131-2.052,1.596,0,3.003.418,4.219,1.292,1.216.874,2.091,2.052,2.585,3.497h2.623c-.532-2.129-1.672-3.839-3.383-5.169-1.711-1.33-3.725-2.014-6.044-2.014-2.775,0-5.093.95-6.956,2.775-1.824,1.824-2.737,4.105-2.737,6.842,0,2.699.912,4.979,2.737,6.842,1.862,1.825,4.181,2.737,6.956,2.737,2.281,0,4.295-.646,6.044-1.977,1.71-1.368,2.851-3.079,3.383-5.207h-2.623c-.494,1.482-1.368,2.661-2.585,3.535Z"/><path class="c" d="M688.87,237.277v-5.854h6.918v-2.319h-6.918v-5.74h7.792v-2.319h-10.263v18.549h10.415v-2.319h-7.944Z"/></svg>