<?xml version="1.0" encoding="UTF-8"?><svg id="a" xmlns="http://www.w3.org/2000/svg" viewBox="0 0 200.918 48.212"><defs><style>.b{fill:#797878;}.c{fill:#fbb701;}.d{fill:#82b72a;}.e{fill:#34a0d9;}.f{fill:#e54618;}</style></defs><path class="b" d="M66.649,6.756c.707.23,4.496,12.543,5.148,12.763.592.2.441-.028.581-.324,1.888-3.983,3.135-8.518,5.237-12.439h4.14v17.573c0,.536-3.133.532-3.133-.224v-12.648c-.549-.157-.599.499-.773.901-1.662,3.841-2.942,7.88-4.629,11.716-.291.814-1.978.79-2.444.208l-5.467-12.824-.161,12.6c-.158.939-2.864.715-2.864.269V6.756h4.364Z"/><path class="b" d="M153.82,24.105c-.211.754-2.762.743-3.036.35-.49-.704.175-8.091-.104-9.522-.293-1.544-1.924.188-2.225-1.355-.564-2.894,1.625-1.39,2.134-2.106.268-.378.013-1.935.112-2.574.216-1.4,1.937-3.09,3.33-3.386,1.699-.361,3.313-.504,3.161,1.587-.121,1.657-.662.696-1.671.778-1.831.148-1.956,2.411-1.567,3.829h4.208s.237-2.72.237-2.72c.385-.215,3.03-1.319,3.03-.551v3.246c0,.176,2.763-.484,3.087.604.971,3.261-3.087,1.548-3.087,2.082v6.828c0,1.241,2.268,1.301,3.133,1.006.465,2.554-.998,2.97-3.226,2.666-1.319-.18-3.041-1.631-3.041-3.001v-7.499h-4.476v9.738Z"/><path class="b" d="M140.338,11.515c9.892-1.441,10.331,12.187,2.569,13.315-10.054,1.461-10.499-12.16-2.569-13.315ZM140.335,14.198c-2.912.743-3.263,7.406.443,8.176,5.18,1.076,5.638-7.581,1.726-8.216-.522-.085-1.666-.088-2.169.04Z"/><path class="b" d="M115.496,11.516c5.38-.787,8.554,2.866,7.867,8.093-.341,2.594-2.746,4.873-5.298,5.222-10.109,1.382-10.303-12.184-2.569-13.315ZM115.713,14.195c-3.764.77-3.301,9.443,2.091,8.134,3.568-.866,3.715-9.322-2.091-8.134Z"/><path class="b" d="M132.781,14.59c-1.124-.427-4.746-1.434-4.833.557-.078,1.784,4.601,2.059,5.383,4.379,1.367,4.052-2.711,5.656-6.005,5.335-2.719-.265-2.483-.736-2.376-3.329,1.434.357,3.557,1.567,5.011.648,2.326-1.47-2.624-3.148-3.296-3.597-3.309-2.214-1.71-6.523,2.035-7.067,2.653-.386,4.751-.134,4.081,3.075Z"/><path class="b" d="M100.106,14.814c-1.013-.097-1.781-.793-2.855-.834-4.966-.191-5.649,7.461-1.185,8.347,1.679.333,2.519-.463,4.04-.795.233,2.585-.044,3.076-2.6,3.329-10.525,1.041-9.906-14.388.224-13.375,2.512.251,2.533.918,2.377,3.328Z"/><path class="b" d="M102.345,24.441v-12.536c0-.216,3.948-.865,3.135,1.343.753-1.08,4.229-2.794,4.486-.797.432,3.357-.976,1.473-2.711,2.018-1.012.317-1.667,1.71-1.778,2.697-.168,1.492.341,6.127-.11,7.053-.383.786-2.309.431-3.022.223Z"/><path class="b" d="M135.02,31.381c2.419.055,6.569-.763,7.458,2.277.812,2.776-1.246,4.544-3.802,4.87-.387.05-.748-.173-1.055-.142-1.649.168-.331,3.313-.782,3.863-.461.562-1.819.514-1.819-.011v-10.857ZM140.098,36.237c.925-1.001.653-2.845-.764-3.238-2.726-.755-2.866.47-2.533,2.981.212,1.599,2.545,1.071,3.298.256Z"/><path class="b" d="M64.146,35.118c1.142,1.228,4.314,1.445,4.801,3.813.899,4.373-6.305,4.687-7.17,2.922-.193-.394-.313-1.42.179-1.518.552-.11,3.038,1.881,4.707.238,1.906-1.875-3.174-3.336-4.151-4.382-2.052-2.196-.041-4.765,2.574-5.032,1.286-.131,3.802-.38,3.471,1.448-.179.987-1.019.18-1.895.105-1.573-.134-4.094.708-2.515,2.406Z"/><path class="b" d="M87.798,11.905v12.536c0,.199-2.95.998-3.146-.994-.345-3.491.245-7.603.058-11.161.294-.998,2.312-.599,3.088-.381Z"/><path class="b" d="M73.416,34.345c6.244-1.05,6.426,7.467,1.91,8.402-6.028,1.248-7.194-7.513-1.91-8.402ZM73.408,35.905c-2.062.614-2.015,4.957.419,5.317,3.858.57,3.566-6.503-.419-5.317Z"/><path class="b" d="M106.986,34.345c6.171-1.038,6.439,7.464,1.91,8.402-6.028,1.248-7.194-7.513-1.91-8.402ZM106.979,35.905c-2.015.6-2.099,4.943.419,5.317,3.834.569,3.499-6.483-.419-5.317Z"/><path class="b" d="M115.493,42.518c-.388.337-1.493.281-1.698-.318-.149-.434-.154-7.17.061-7.476.378-.537,2.082-.356,2.026.684,2.022-1.895,4.775-1.418,5.203,1.516.101.69.173,5.113-.044,5.434-.122.18-.871.432-1.098.39-2.049-.378.715-6.903-2.266-6.912-3.46-.011-1.034,5.682-2.185,6.683Z"/><path class="b" d="M175.305,38.992c-.448.459.513,1.721,1.036,1.986.593.301,1.332.338,1.993.259.638-.077,1.794-.952,1.853.058.045.762-1.046,1.327-1.687,1.453-7.447,1.465-6.371-10.421.061-8.244,2.135.723,2.652,4.488,1.78,4.488h-5.036ZM178.886,37.649c.071-2.812-3.503-2.511-3.581,0h3.581Z"/><path class="b" d="M164.819,34.548c.172-.107,1.161-.081,1.397,0,.38.13.205.717.692.651.406-.056.735-.591,1.27-.76,2.063-.651,3.541.602,3.77,2.65.071.632.069,5.014-.103,5.269-.379.559-1.516.468-1.805-.239-.089-.217.188-3.175.125-3.918-.089-1.041-.356-2.462-1.686-2.467-3.16-.012-1.291,5.137-2.014,6.616-.351.718-1.327.512-1.692-.098-.373-.625-.322-7.475.046-7.704Z"/><path class="b" d="M148.503,42.52c-.247-.249-.134-1.029-.61-.84-.332.132-.702.933-1.168,1.071-3.374.996-5.142-3.913-1.369-4.95.61-.168,2.683-.178,2.856-.738.237-.769-.829-1.369-1.462-1.424-1.157-.101-3.338,1.674-2.732-.296.382-1.243,5.601-2.059,6.003,1.294.082.68.063,5.42-.114,5.715-.241.401-1.054.522-1.403.169ZM147.72,38.589c-.207-.01-1.438.239-1.696.328-1.586.549-1.296,2.604.73,2.303,1.596-.237,1.959-2.583.966-2.631Z"/><path class="b" d="M84.441,34.515c.074-.074,1.591-.144,1.759.367.476,1.45-.979,6.216,1.485,6.37.868.054,2.128-.861,2.128-1.7v-4.701c0-.469,1.79-.469,1.79,0v7.387c0,.175-.951.567-1.204.517-.425-.085-.723-1.068-.922-1.072-.163-.004-1.038,1.458-2.899,1.103-.683-.13-2.136-1.434-2.136-2.114,0-.839-.218-5.939,0-6.156Z"/><path class="b" d="M123.004,42.285c-.312-.384-.468-1.4.048-1.503.28-.056,2.672,1.138,3.484.135,1.228-1.516-2.697-1.904-3.354-2.956-.337-.539-.376-1.738-.13-2.322.644-1.531,5.104-1.952,5.218-.3.095,1.378-2.118-.384-3.218.733-1.335,1.356,2.415,1.884,3.137,2.925,2.126,3.065-3.813,4.974-5.186,3.288Z"/><path class="b" d="M162.966,34.542c.217.133.216,1.157,0,1.288-.357.218-1.501-.301-1.729.395-.125.381-.112,3.466-.042,4.008.217,1.666,2.062.523,2.029,1.55-.05,1.573-2.796,1.337-3.591.012-.801-1.336-.373-3.763-.315-5.274-.265-1.027-1.65-.221-1.369-1.568.153-.733.832-.261,1.272-.759.282-.319-.45-1.812,1.219-1.919,1.36-.087.388,1.741.974,2.143.395.271,1.266-.049,1.552.125Z"/><path class="b" d="M96.302,32.276l.099,2.029c.361.514,1.834-.226,1.93.77.132,1.362-1.76.188-2.021,1.572-.182.967-.292,4.202.824,4.535.697.208,1.785-.326,1.072,1.167-.292.61-1.618.536-2.183.39-2.536-.654-1.017-4.941-1.541-6.516-.206-.618-1.211-.269-1.313-.367-.049-.047-.029-.957.099-1.135.207-.288.946-.132,1.15-.416.45-.63-.555-2.247,1.885-2.031Z"/><path class="b" d="M82.203,42.014c-.172.991-2.014.873-2.014,0v-10.969c0-.479,2.014-.479,2.014,0v10.969Z"/><path class="b" d="M156.952,36.082c-2.155-.541-2.749,1.195-2.904,3.026-.07.819.246,2.475.17,2.882-.131.697-1.437,1.11-1.847.13-.205-.489-.232-7.092-.019-7.396.185-.264,1.274-.301,1.555-.223.246.068.128,1.04.694.908.585-.136,2.53-3.078,2.352.673Z"/><path class="b" d="M182.467,34.851c.122-.392,1.049-.432,1.419-.3.361.128.533.849.707.856.108.004.833-1.067,1.817-1.11,1.058-.047.859,1.685.758,1.787-.195.196-1.564-.557-2.428.817-.088.139-.482,1.025-.482,1.084v4.253c0,.683-1.79.682-1.79,0v-7.387Z"/><path class="b" d="M99.883,34.851c.119-.385,1.316-.445,1.653-.349.216.062.233.593.234.792.009,1.298.115,6.023-.142,6.896-.308,1.047-1.745.252-1.745.047v-7.387Z"/><path class="b" d="M85.948,6.347c2.316-.483,3.183,3.009.79,3.504-2.261.468-3.284-2.984-.79-3.504Z"/><path class="b" d="M100.72,30.739c1.278-.184,1.673,2.046.176,2.118-1.441.07-1.548-1.921-.176-2.118Z"/><rect class="c" x="32.834" y="24.98" width="17.462" height="17.462"/><rect class="d" x="32.834" y="5.77" width="17.462" height="17.462"/><rect class="f" x="13.667" y="5.77" width="17.462" height="17.462"/><rect class="e" x="13.667" y="24.98" width="17.462" height="17.462"/></svg>